<svg width="130" height="33" viewBox="0 0 130 33" fill="none" xmlns="http://www.w3.org/2000/svg">
<path d="M19.8521 7.67432C19.6545 7.99884 19.45 8.2387 19.2383 8.39391C19.0408 8.535 18.7798 8.60555 18.4552 8.60555C18.1448 8.60555 17.8062 8.49973 17.4394 8.28809C17.0866 8.06233 16.6704 7.82247 16.1907 7.5685C15.7109 7.31453 15.1607 7.08172 14.5398 6.87008C13.919 6.64433 13.1924 6.53145 12.3599 6.53145C10.8925 6.53145 9.792 6.86303 9.0583 7.52617C8.32461 8.17521 7.95776 9.02884 7.95776 10.087C7.95776 10.7643 8.15529 11.3287 8.55036 11.7802C8.95954 12.2176 9.48864 12.5985 10.1377 12.9231C10.8008 13.2476 11.5486 13.5368 12.3811 13.7908C13.2136 14.0448 14.0672 14.327 14.942 14.6374C15.8168 14.9337 16.6704 15.2864 17.5028 15.6956C18.3353 16.1048 19.0761 16.6198 19.7251 17.2406C20.3882 17.8614 20.9173 18.6233 21.3124 19.5263C21.7216 20.4152 21.9262 21.5016 21.9262 22.7856C21.9262 24.1824 21.6793 25.4946 21.1854 26.7222C20.7057 27.9356 20.0073 29.0008 19.0902 29.918C18.173 30.821 17.0372 31.5335 15.6827 32.0556C14.3423 32.5776 12.8185 32.8386 11.1112 32.8386C10.1377 32.8386 9.16412 32.7399 8.19057 32.5423C7.23112 32.3448 6.29989 32.0697 5.39689 31.7169C4.50799 31.3642 3.66847 30.9409 2.87834 30.4471C2.08821 29.9532 1.39684 29.403 0.804242 28.7963L2.6667 25.7909C2.8219 25.5652 3.02649 25.3818 3.28046 25.2407C3.53443 25.0855 3.80251 25.0079 4.0847 25.0079C4.46566 25.0079 4.86778 25.1489 5.29106 25.4311C5.71435 25.7133 6.20113 26.0237 6.7514 26.3624C7.30167 26.701 7.9366 27.0114 8.65618 27.2936C9.38988 27.5758 10.2647 27.7169 11.2806 27.7169C12.762 27.7169 13.9049 27.3782 14.7092 26.701C15.5275 26.0237 15.9367 25.0149 15.9367 23.6745C15.9367 22.8985 15.7321 22.2706 15.3229 21.7909C14.9279 21.3112 14.4058 20.909 13.7568 20.5845C13.1077 20.26 12.367 19.9849 11.5345 19.7591C10.7021 19.5193 9.84844 19.2582 8.97365 18.976C8.09886 18.6938 7.24523 18.3552 6.41277 17.9602C5.58031 17.5651 4.83956 17.043 4.19052 16.394C3.54149 15.745 3.01238 14.9407 2.6032 13.9813C2.20814 13.0218 2.0106 11.8296 2.0106 10.4045C2.0106 9.26164 2.23636 8.15405 2.68786 7.08172C3.13937 6.0094 3.80251 5.05701 4.6773 4.22455C5.55209 3.39209 6.62441 2.72189 7.89427 2.21394C9.17823 1.706 10.6456 1.45203 12.2964 1.45203C14.1448 1.45203 15.852 1.74127 17.4182 2.31976C18.9985 2.88415 20.3318 3.67428 21.4182 4.69016L19.8521 7.67432ZM57.6918 0.944089V32.5H51.8505V0.944089H57.6918ZM69.4128 10.6796V32.5H63.5715V10.6796H69.4128ZM70.1112 4.47852C70.1112 4.97235 70.0125 5.43091 69.8149 5.8542C69.6174 6.27748 69.3493 6.65138 69.0107 6.9759C68.6862 7.30042 68.2982 7.55439 67.8467 7.73782C67.4093 7.92124 66.9366 8.01295 66.4287 8.01295C65.9489 8.01295 65.4904 7.92124 65.053 7.73782C64.6297 7.55439 64.2558 7.30042 63.9313 6.9759C63.6068 6.65138 63.3457 6.27748 63.1482 5.8542C62.9648 5.43091 62.8731 4.97235 62.8731 4.47852C62.8731 3.98469 62.9648 3.52613 63.1482 3.10284C63.3457 2.66545 63.6068 2.28449 63.9313 1.95997C64.2558 1.63545 64.6297 1.38148 65.053 1.19806C65.4904 1.01464 65.9489 0.922923 66.4287 0.922923C66.9366 0.922923 67.4093 1.01464 67.8467 1.19806C68.2982 1.38148 68.6862 1.63545 69.0107 1.95997C69.3493 2.28449 69.6174 2.66545 69.8149 3.10284C70.0125 3.52613 70.1112 3.98469 70.1112 4.47852ZM80.6623 13.2194C81.0997 12.7961 81.5512 12.4081 82.0168 12.0553C82.4965 11.7026 82.9974 11.3992 83.5195 11.1453C84.0556 10.8913 84.6271 10.6938 85.2338 10.5527C85.8546 10.4116 86.5248 10.341 87.2444 10.341C88.4296 10.341 89.4807 10.5456 90.3978 10.9548C91.315 11.364 92.0839 11.9354 92.7047 12.6691C93.3397 13.4028 93.8123 14.2776 94.1228 15.2935C94.4473 16.3093 94.6095 17.424 94.6095 18.6374V32.5H88.7894V18.6374C88.7894 17.424 88.5072 16.4857 87.9428 15.8226C87.3784 15.1453 86.5459 14.8067 85.4454 14.8067C84.6271 14.8067 83.8581 14.983 83.1385 15.3358C82.4189 15.6885 81.7346 16.1824 81.0856 16.8173V32.5H75.2442V10.6796H78.8422C79.5758 10.6796 80.0626 11.0183 80.3025 11.6955L80.6623 13.2194ZM106.118 10.6796V32.5H100.277V10.6796H106.118ZM106.816 4.47852C106.816 4.97235 106.718 5.43091 106.52 5.8542C106.323 6.27748 106.054 6.65138 105.716 6.9759C105.391 7.30042 105.003 7.55439 104.552 7.73782C104.114 7.92124 103.642 8.01295 103.134 8.01295C102.654 8.01295 102.195 7.92124 101.758 7.73782C101.335 7.55439 100.961 7.30042 100.636 6.9759C100.312 6.65138 100.051 6.27748 99.8533 5.8542C99.6699 5.43091 99.5782 4.97235 99.5782 4.47852C99.5782 3.98469 99.6699 3.52613 99.8533 3.10284C100.051 2.66545 100.312 2.28449 100.636 1.95997C100.961 1.63545 101.335 1.38148 101.758 1.19806C102.195 1.01464 102.654 0.922923 103.134 0.922923C103.642 0.922923 104.114 1.01464 104.552 1.19806C105.003 1.38148 105.391 1.63545 105.716 1.95997C106.054 2.28449 106.323 2.66545 106.52 3.10284C106.718 3.52613 106.816 3.98469 106.816 4.47852ZM123.357 23.3782C121.932 23.4488 120.747 23.5757 119.801 23.7592C118.856 23.9285 118.101 24.1542 117.537 24.4364C116.986 24.7186 116.591 25.0431 116.352 25.41C116.126 25.7627 116.013 26.1507 116.013 26.574C116.013 27.4206 116.246 28.0202 116.711 28.373C117.191 28.7257 117.854 28.9021 118.701 28.9021C119.674 28.9021 120.514 28.7328 121.219 28.3941C121.939 28.0414 122.651 27.4982 123.357 26.7645V23.3782ZM111.463 13.7061C112.747 12.5492 114.165 11.6885 115.717 11.1241C117.269 10.5456 118.948 10.2564 120.754 10.2564C122.052 10.2564 123.209 10.468 124.225 10.8913C125.255 11.3146 126.122 11.9072 126.828 12.6691C127.547 13.4169 128.098 14.3128 128.479 15.3569C128.86 16.4011 129.05 17.5439 129.05 18.7856V32.5H126.383C125.833 32.5 125.41 32.4224 125.114 32.2672C124.831 32.112 124.599 31.7875 124.415 31.2936L123.949 29.8968C123.399 30.3765 122.863 30.7998 122.341 31.1667C121.833 31.5335 121.304 31.8439 120.754 32.0979C120.203 32.3377 119.611 32.5212 118.976 32.6481C118.355 32.7751 117.657 32.8386 116.881 32.8386C115.921 32.8386 115.046 32.7116 114.256 32.4577C113.466 32.2037 112.782 31.8298 112.203 31.336C111.639 30.828 111.202 30.2002 110.891 29.4523C110.581 28.7045 110.426 27.8439 110.426 26.8703C110.426 26.0661 110.63 25.2618 111.039 24.4576C111.448 23.6533 112.147 22.9267 113.135 22.2777C114.136 21.6145 115.463 21.0713 117.113 20.648C118.778 20.2106 120.859 19.9637 123.357 19.9073V18.7856C123.357 17.4169 123.068 16.4152 122.489 15.7802C121.911 15.1312 121.078 14.8067 119.992 14.8067C119.188 14.8067 118.517 14.9054 117.981 15.103C117.445 15.2864 116.972 15.491 116.563 15.7167C116.168 15.9284 115.794 16.133 115.441 16.3305C115.089 16.5139 114.68 16.6056 114.214 16.6056C113.805 16.6056 113.459 16.5069 113.177 16.3093C112.909 16.0977 112.683 15.8508 112.5 15.5686L111.463 13.7061Z" fill="#006847"/>
<path d="M36.3731 10.341C38.0098 10.341 39.4984 10.602 40.8388 11.1241C42.1792 11.6461 43.3291 12.394 44.2885 13.3675C45.248 14.327 45.9887 15.498 46.5108 16.8808C47.0328 18.2635 47.2939 19.8226 47.2939 21.5581C47.2939 23.2935 47.0328 24.8597 46.5108 26.2565C45.9887 27.6393 45.248 28.8174 44.2885 29.791C43.3291 30.7645 42.1792 31.5123 40.8388 32.0344C39.4984 32.5564 38.0098 32.8175 36.3731 32.8175C34.7223 32.8175 33.2196 32.5564 31.8651 32.0344C30.5247 31.5123 29.3748 30.7645 28.4153 29.791C27.4559 28.8174 26.7081 27.6393 26.1719 26.2565C25.6499 24.8597 25.3888 23.2935 25.3888 21.5581C25.3888 19.8226 25.6499 18.2635 26.1719 16.8808C26.7081 15.498 27.4559 14.327 28.4153 13.3675C29.3748 12.394 30.5247 11.6461 31.8651 11.1241C33.2196 10.602 34.7223 10.341 36.3731 10.341ZM36.3731 28.4365C38.038 28.4365 39.2726 27.865 40.0768 26.7222C40.8811 25.5652 41.2832 23.8509 41.2832 21.5792C41.2832 19.3217 40.8811 17.6215 40.0768 16.4787C39.2726 15.3217 38.038 14.7432 36.3731 14.7432C34.6658 14.7432 33.4101 15.3217 32.6059 16.4787C31.8016 17.6215 31.3995 19.3217 31.3995 21.5792C31.3995 23.8509 31.8016 25.5652 32.6059 26.7222C33.4101 27.865 34.6658 28.4365 36.3731 28.4365Z" fill="#FF9506"/>
</svg>
