<svg width="35" height="33" viewBox="0 0 35 33" fill="none" xmlns="http://www.w3.org/2000/svg">
<path d="M8 0.5H27C31.1421 0.5 34.5 3.85786 34.5 8V25C34.5 29.1421 31.1421 32.5 27 32.5H8C3.85786 32.5 0.5 29.1421 0.5 25V8C0.5 3.85786 3.85786 0.5 8 0.5Z" fill="white"/>
<path d="M8 0.5H27C31.1421 0.5 34.5 3.85786 34.5 8V25C34.5 29.1421 31.1421 32.5 27 32.5H8C3.85786 32.5 0.5 29.1421 0.5 25V8C0.5 3.85786 3.85786 0.5 8 0.5Z" stroke="#BBDBC9"/>
<line x1="17.25" y1="9.75" x2="25.75" y2="9.75" stroke="#000101" stroke-width="1.5" stroke-linecap="round"/>
<line x1="9.25" y1="15.75" x2="25.75" y2="15.75" stroke="#000101" stroke-width="1.5" stroke-linecap="round"/>
<line x1="14.25" y1="21.75" x2="25.75" y2="21.75" stroke="#000101" stroke-width="1.5" stroke-linecap="round"/>
</svg>
