<svg width="10" height="10" viewBox="0 0 10 10" fill="none" xmlns="http://www.w3.org/2000/svg">
<path d="M5.00014 6.0635L1.75389 9.3095C1.60906 9.4545 1.43347 9.52534 1.22714 9.522C1.02064 9.51884 0.844973 9.44484 0.70014 9.3C0.555306 9.15517 0.48289 8.97792 0.48289 8.76825C0.48289 8.55859 0.555306 8.38134 0.70014 8.2365L3.93664 5L0.69064 1.77875C0.54564 1.63392 0.474806 1.45667 0.47814 1.247C0.481306 1.0375 0.555306 0.860335 0.70014 0.715501C0.844973 0.570501 1.02222 0.498001 1.23189 0.498001C1.44156 0.498001 1.61881 0.570501 1.76364 0.715501L5.00014 3.9615L8.22139 0.715501C8.36622 0.570501 8.54181 0.498001 8.74814 0.498001C8.95464 0.498001 9.13031 0.570501 9.27514 0.715501C9.43031 0.870501 9.50789 1.05025 9.50789 1.25475C9.50789 1.45925 9.43031 1.63392 9.27514 1.77875L6.03864 5L9.28464 8.24625C9.42964 8.39109 9.50214 8.56667 9.50214 8.773C9.50214 8.9795 9.42964 9.15517 9.28464 9.3C9.12964 9.45517 8.94989 9.53275 8.74539 9.53275C8.54089 9.53275 8.36622 9.45517 8.22139 9.3L5.00014 6.0635Z" fill="#1C1B1F"/>
</svg>
