<svg width="41" height="40" viewBox="0 0 41 40" fill="none" xmlns="http://www.w3.org/2000/svg">
<path d="M20.8642 12.3795C16.6616 12.3795 13.2427 15.7984 13.2427 20.0006C13.2427 24.2033 16.6616 27.6221 20.8642 27.6221C25.0665 27.6221 28.4853 24.2033 28.4853 20.0007C28.4853 15.7983 25.0665 12.3795 20.8642 12.3795ZM25.389 18.5655L19.9291 24.0253C19.8202 24.1345 19.6908 24.2211 19.5484 24.2801C19.4059 24.3391 19.2532 24.3694 19.099 24.3693C18.9449 24.3695 18.7922 24.3392 18.6498 24.2802C18.5074 24.2211 18.3781 24.1345 18.2693 24.0253L16.1828 21.9388C15.7244 21.4808 15.7244 20.7376 16.1828 20.2793C16.6408 19.8209 17.3839 19.8209 17.8423 20.2793L19.099 21.536L23.7295 16.9059C24.1875 16.4475 24.9306 16.4475 25.389 16.9059C25.8474 17.364 25.8474 18.1071 25.389 18.5655Z" fill="#D20032"/>
<path d="M37.8559 10.853L37.8547 10.8219C37.8366 10.4078 37.8245 9.99342 37.8187 9.57895C37.7861 7.3734 36.0328 5.54903 33.827 5.42583C29.228 5.16911 25.6703 3.6695 22.6305 0.706542L22.6045 0.681854C21.613 -0.227285 20.1174 -0.227285 19.1255 0.681854L19.0995 0.706542C16.0597 3.6695 12.502 5.16911 7.903 5.42606C5.69754 5.54903 3.94395 7.37348 3.91129 9.57918C3.90556 9.99358 3.89358 10.4079 3.87536 10.8219L3.87348 10.8942C3.78403 15.5839 3.67293 21.4203 5.62543 26.7178C6.6991 29.6311 8.32503 32.1634 10.4579 34.245C12.8871 36.6156 16.0688 38.4976 19.9147 39.8386C20.0413 39.8826 20.1708 39.9179 20.3022 39.9441C20.489 39.9814 20.677 40 20.865 40C21.053 40 21.2413 39.9814 21.4277 39.9441C21.5597 39.9177 21.6897 39.8822 21.8168 39.8379C25.658 38.4945 28.8365 36.6116 31.2635 34.2413C33.3955 32.1591 35.0215 29.6262 36.096 26.7123C38.0558 21.3989 37.945 15.5514 37.8559 10.853ZM20.8644 29.9691C15.3675 29.9691 10.8958 25.4974 10.8958 20.0006C10.8958 14.5038 15.3676 10.0321 20.8644 10.0321C26.3609 10.0321 30.833 14.5038 30.833 20.0006C30.833 25.4975 26.3609 29.9691 20.8644 29.9691Z" fill="#D20032"/>
</svg>
