<svg width="130" height="33" viewBox="0 0 130 33" fill="none" xmlns="http://www.w3.org/2000/svg">
<path d="M19.8521 7.17432C19.6545 7.49884 19.45 7.7387 19.2383 7.89391C19.0408 8.035 18.7798 8.10555 18.4552 8.10555C18.1448 8.10555 17.8062 7.99973 17.4394 7.78809C17.0866 7.56233 16.6704 7.32247 16.1907 7.0685C15.7109 6.81453 15.1607 6.58172 14.5398 6.37008C13.919 6.14433 13.1924 6.03145 12.3599 6.03145C10.8925 6.03145 9.792 6.36303 9.0583 7.02617C8.32461 7.67521 7.95776 8.52884 7.95776 9.58705C7.95776 10.2643 8.15529 10.8287 8.55036 11.2802C8.95954 11.7176 9.48864 12.0985 10.1377 12.4231C10.8008 12.7476 11.5486 13.0368 12.3811 13.2908C13.2136 13.5448 14.0672 13.827 14.942 14.1374C15.8168 14.4337 16.6704 14.7864 17.5028 15.1956C18.3353 15.6048 19.0761 16.1198 19.7251 16.7406C20.3882 17.3614 20.9173 18.1233 21.3124 19.0263C21.7216 19.9152 21.9262 21.0016 21.9262 22.2856C21.9262 23.6824 21.6793 24.9946 21.1854 26.2222C20.7057 27.4356 20.0073 28.5008 19.0902 29.418C18.173 30.321 17.0372 31.0335 15.6827 31.5556C14.3423 32.0776 12.8185 32.3386 11.1112 32.3386C10.1377 32.3386 9.16412 32.2399 8.19057 32.0423C7.23112 31.8448 6.29989 31.5697 5.39689 31.2169C4.50799 30.8642 3.66847 30.4409 2.87834 29.9471C2.08821 29.4532 1.39684 28.903 0.804242 28.2963L2.6667 25.2909C2.8219 25.0652 3.02649 24.8818 3.28046 24.7407C3.53443 24.5855 3.80251 24.5079 4.0847 24.5079C4.46566 24.5079 4.86778 24.6489 5.29106 24.9311C5.71435 25.2133 6.20113 25.5237 6.7514 25.8624C7.30167 26.201 7.9366 26.5114 8.65618 26.7936C9.38988 27.0758 10.2647 27.2169 11.2806 27.2169C12.762 27.2169 13.9049 26.8782 14.7092 26.201C15.5275 25.5237 15.9367 24.5149 15.9367 23.1745C15.9367 22.3985 15.7321 21.7706 15.3229 21.2909C14.9279 20.8112 14.4058 20.409 13.7568 20.0845C13.1077 19.76 12.367 19.4849 11.5345 19.2591C10.7021 19.0193 9.84844 18.7582 8.97365 18.476C8.09886 18.1938 7.24523 17.8552 6.41277 17.4602C5.58031 17.0651 4.83956 16.543 4.19052 15.894C3.54149 15.245 3.01238 14.4407 2.6032 13.4813C2.20814 12.5218 2.0106 11.3296 2.0106 9.90451C2.0106 8.76164 2.23636 7.65405 2.68786 6.58172C3.13937 5.5094 3.80251 4.55701 4.6773 3.72455C5.55209 2.89209 6.62441 2.22189 7.89427 1.71394C9.17823 1.206 10.6456 0.952029 12.2964 0.952029C14.1448 0.952029 15.852 1.24127 17.4182 1.81976C18.9985 2.38415 20.3318 3.17428 21.4182 4.19016L19.8521 7.17432ZM36.3731 9.84102C38.0098 9.84102 39.4984 10.102 40.8388 10.6241C42.1792 11.1461 43.3291 11.894 44.2885 12.8675C45.248 13.827 45.9887 14.998 46.5108 16.3808C47.0328 17.7635 47.2939 19.3226 47.2939 21.0581C47.2939 22.7935 47.0328 24.3597 46.5108 25.7565C45.9887 27.1393 45.248 28.3174 44.2885 29.291C43.3291 30.2645 42.1792 31.0123 40.8388 31.5344C39.4984 32.0564 38.0098 32.3175 36.3731 32.3175C34.7223 32.3175 33.2196 32.0564 31.8651 31.5344C30.5247 31.0123 29.3748 30.2645 28.4153 29.291C27.4559 28.3174 26.7081 27.1393 26.1719 25.7565C25.6499 24.3597 25.3888 22.7935 25.3888 21.0581C25.3888 19.3226 25.6499 17.7635 26.1719 16.3808C26.7081 14.998 27.4559 13.827 28.4153 12.8675C29.3748 11.894 30.5247 11.1461 31.8651 10.6241C33.2196 10.102 34.7223 9.84102 36.3731 9.84102ZM36.3731 27.9365C38.038 27.9365 39.2726 27.365 40.0768 26.2222C40.8811 25.0652 41.2832 23.3509 41.2832 21.0792C41.2832 18.8217 40.8811 17.1215 40.0768 15.9787C39.2726 14.8217 38.038 14.2432 36.3731 14.2432C34.6658 14.2432 33.4101 14.8217 32.6059 15.9787C31.8016 17.1215 31.3995 18.8217 31.3995 21.0792C31.3995 23.3509 31.8016 25.0652 32.6059 26.2222C33.4101 27.365 34.6658 27.9365 36.3731 27.9365ZM57.6918 0.444089V32H51.8505V0.444089H57.6918ZM69.4128 10.1796V32H63.5715V10.1796H69.4128ZM70.1112 3.97852C70.1112 4.47235 70.0125 4.93091 69.8149 5.3542C69.6174 5.77748 69.3493 6.15138 69.0107 6.4759C68.6862 6.80042 68.2982 7.05439 67.8467 7.23782C67.4093 7.42124 66.9366 7.51295 66.4287 7.51295C65.9489 7.51295 65.4904 7.42124 65.053 7.23782C64.6297 7.05439 64.2558 6.80042 63.9313 6.4759C63.6068 6.15138 63.3457 5.77748 63.1482 5.3542C62.9648 4.93091 62.8731 4.47235 62.8731 3.97852C62.8731 3.48469 62.9648 3.02613 63.1482 2.60284C63.3457 2.16545 63.6068 1.78449 63.9313 1.45997C64.2558 1.13545 64.6297 0.881483 65.053 0.698059C65.4904 0.514635 65.9489 0.422923 66.4287 0.422923C66.9366 0.422923 67.4093 0.514635 67.8467 0.698059C68.2982 0.881483 68.6862 1.13545 69.0107 1.45997C69.3493 1.78449 69.6174 2.16545 69.8149 2.60284C70.0125 3.02613 70.1112 3.48469 70.1112 3.97852ZM80.6623 12.7194C81.0997 12.2961 81.5512 11.9081 82.0168 11.5553C82.4965 11.2026 82.9974 10.8992 83.5195 10.6453C84.0556 10.3913 84.6271 10.1938 85.2338 10.0527C85.8546 9.91157 86.5248 9.84102 87.2444 9.84102C88.4296 9.84102 89.4807 10.0456 90.3978 10.4548C91.315 10.864 92.0839 11.4354 92.7047 12.1691C93.3397 12.9028 93.8123 13.7776 94.1228 14.7935C94.4473 15.8093 94.6095 16.924 94.6095 18.1374V32H88.7894V18.1374C88.7894 16.924 88.5072 15.9857 87.9428 15.3226C87.3784 14.6453 86.5459 14.3067 85.4454 14.3067C84.6271 14.3067 83.8581 14.483 83.1385 14.8358C82.4189 15.1885 81.7346 15.6824 81.0856 16.3173V32H75.2442V10.1796H78.8422C79.5758 10.1796 80.0626 10.5183 80.3025 11.1955L80.6623 12.7194ZM106.118 10.1796V32H100.277V10.1796H106.118ZM106.816 3.97852C106.816 4.47235 106.718 4.93091 106.52 5.3542C106.323 5.77748 106.054 6.15138 105.716 6.4759C105.391 6.80042 105.003 7.05439 104.552 7.23782C104.114 7.42124 103.642 7.51295 103.134 7.51295C102.654 7.51295 102.195 7.42124 101.758 7.23782C101.335 7.05439 100.961 6.80042 100.636 6.4759C100.312 6.15138 100.051 5.77748 99.8533 5.3542C99.6699 4.93091 99.5782 4.47235 99.5782 3.97852C99.5782 3.48469 99.6699 3.02613 99.8533 2.60284C100.051 2.16545 100.312 1.78449 100.636 1.45997C100.961 1.13545 101.335 0.881483 101.758 0.698059C102.195 0.514635 102.654 0.422923 103.134 0.422923C103.642 0.422923 104.114 0.514635 104.552 0.698059C105.003 0.881483 105.391 1.13545 105.716 1.45997C106.054 1.78449 106.323 2.16545 106.52 2.60284C106.718 3.02613 106.816 3.48469 106.816 3.97852ZM123.357 22.8782C121.932 22.9488 120.747 23.0757 119.801 23.2592C118.856 23.4285 118.101 23.6542 117.537 23.9364C116.986 24.2186 116.591 24.5431 116.352 24.91C116.126 25.2627 116.013 25.6507 116.013 26.074C116.013 26.9206 116.246 27.5202 116.711 27.873C117.191 28.2257 117.854 28.4021 118.701 28.4021C119.674 28.4021 120.514 28.2328 121.219 27.8941C121.939 27.5414 122.651 26.9982 123.357 26.2645V22.8782ZM111.463 13.2061C112.747 12.0492 114.165 11.1885 115.717 10.6241C117.269 10.0456 118.948 9.75636 120.754 9.75636C122.052 9.75636 123.209 9.96801 124.225 10.3913C125.255 10.8146 126.122 11.4072 126.828 12.1691C127.547 12.9169 128.098 13.8128 128.479 14.8569C128.86 15.9011 129.05 17.0439 129.05 18.2856V32H126.383C125.833 32 125.41 31.9224 125.114 31.7672C124.831 31.612 124.599 31.2875 124.415 30.7936L123.949 29.3968C123.399 29.8765 122.863 30.2998 122.341 30.6667C121.833 31.0335 121.304 31.3439 120.754 31.5979C120.203 31.8377 119.611 32.0212 118.976 32.1481C118.355 32.2751 117.657 32.3386 116.881 32.3386C115.921 32.3386 115.046 32.2116 114.256 31.9577C113.466 31.7037 112.782 31.3298 112.203 30.836C111.639 30.328 111.202 29.7002 110.891 28.9523C110.581 28.2045 110.426 27.3439 110.426 26.3703C110.426 25.5661 110.63 24.7618 111.039 23.9576C111.448 23.1533 112.147 22.4267 113.135 21.7777C114.136 21.1145 115.463 20.5713 117.113 20.148C118.778 19.7106 120.859 19.4637 123.357 19.4073V18.2856C123.357 16.9169 123.068 15.9152 122.489 15.2802C121.911 14.6312 121.078 14.3067 119.992 14.3067C119.188 14.3067 118.517 14.4054 117.981 14.603C117.445 14.7864 116.972 14.991 116.563 15.2167C116.168 15.4284 115.794 15.633 115.441 15.8305C115.089 16.0139 114.68 16.1056 114.214 16.1056C113.805 16.1056 113.459 16.0069 113.177 15.8093C112.909 15.5977 112.683 15.3508 112.5 15.0686L111.463 13.2061Z" fill="white"/>
</svg>
